# xmcd
#
# Track frame offsets: 
#        150
#        24409
#        41217
#        72520
#        90888
#        121615
#        149845
#        176034
#        200191
#        215466
#        234252
#
# Disc length: 3405 seconds
#
# Revision: 1
# Processed by: cddbd v1.5.2PL0 Copyright (c) Steve Scherf et al.
# Submitted via: ExactAudioCopy v0.99pb5
#
DISCID=9f0d4b0b
DTITLE=Direct Latin Influence - DLI 2
DYEAR=2005
DGENRE=Salsa
TTITLE0=Pepe Antonio
TTITLE1=A Mì Qué
TTITLE2=Traicionera
TTITLE3=Besitos de Coco
TTITLE4=Lagrimas Negras
TTITLE5=Bolero Medley
TTITLE6=La-la-la
TTITLE7=La Engañadora
TTITLE8=El Negrito del Batey
TTITLE9=Clavelitos
TTITLE10=Tatalibaba
EXTD=YEAR: 2005
EXTT0=
EXTT1=
EXTT2=
EXTT3=
EXTT4=
EXTT5=
EXTT6=
EXTT7=
EXTT8=
EXTT9=
EXTT10=
PLAYORDER=
